<svg width="134" height="18" viewBox="0 0 134 18" fill="none" xmlns="http://www.w3.org/2000/svg">
<path d="M0.0135156 9.96C0.0135156 8.57333 0.313516 7.34 0.913516 6.26C1.51352 5.16667 2.34685 4.32 3.41352 3.72C4.49352 3.10667 5.71352 2.8 7.07352 2.8C8.74018 2.8 10.1668 3.24 11.3535 4.12C12.5402 5 13.3335 6.2 13.7335 7.72H9.97352C9.69352 7.13333 9.29352 6.68667 8.77352 6.38C8.26685 6.07333 7.68685 5.92 7.03352 5.92C5.98018 5.92 5.12685 6.28667 4.47352 7.02C3.82018 7.75333 3.49352 8.73333 3.49352 9.96C3.49352 11.1867 3.82018 12.1667 4.47352 12.9C5.12685 13.6333 5.98018 14 7.03352 14C7.68685 14 8.26685 13.8467 8.77352 13.54C9.29352 13.2333 9.69352 12.7867 9.97352 12.2H13.7335C13.3335 13.72 12.5402 14.92 11.3535 15.8C10.1668 16.6667 8.74018 17.1 7.07352 17.1C5.71352 17.1 4.49352 16.8 3.41352 16.2C2.34685 15.5867 1.51352 14.74 0.913516 13.66C0.313516 12.58 0.0135156 11.3467 0.0135156 9.96ZM19.2479 2.2V17H15.8279V2.2H19.2479ZM23.4463 4.68C22.8463 4.68 22.353 4.50667 21.9663 4.16C21.593 3.8 21.4063 3.36 21.4063 2.84C21.4063 2.30667 21.593 1.86667 21.9663 1.52C22.353 1.16 22.8463 0.979999 23.4463 0.979999C24.033 0.979999 24.513 1.16 24.8863 1.52C25.273 1.86667 25.4663 2.30667 25.4663 2.84C25.4663 3.36 25.273 3.8 24.8863 4.16C24.513 4.50667 24.033 4.68 23.4463 4.68ZM25.1463 5.84V17H21.7263V5.84H25.1463ZM26.9448 11.42C26.9448 10.26 27.1781 9.24667 27.6448 8.38C28.1248 7.51333 28.7848 6.84667 29.6248 6.38C30.4781 5.91333 31.4514 5.68 32.5448 5.68C33.9448 5.68 35.1114 6.04667 36.0448 6.78C36.9914 7.51333 37.6114 8.54667 37.9048 9.88H34.2648C33.9581 9.02667 33.3648 8.6 32.4848 8.6C31.8581 8.6 31.3581 8.84667 30.9848 9.34C30.6114 9.82 30.4248 10.5133 30.4248 11.42C30.4248 12.3267 30.6114 13.0267 30.9848 13.52C31.3581 14 31.8581 14.24 32.4848 14.24C33.3648 14.24 33.9581 13.8133 34.2648 12.96H37.9048C37.6114 14.2667 36.9914 15.2933 36.0448 16.04C35.0981 16.7867 33.9314 17.16 32.5448 17.16C31.4514 17.16 30.4781 16.9267 29.6248 16.46C28.7848 15.9933 28.1248 15.3267 27.6448 14.46C27.1781 13.5933 26.9448 12.58 26.9448 11.42ZM46.5541 17L43.1541 12.32V17H39.7341V2.2H43.1541V10.38L46.5341 5.84H50.7541L46.1141 11.44L50.7941 17H46.5541ZM57.1774 17.14C56.1508 17.14 55.2308 16.9733 54.4174 16.64C53.6041 16.3067 52.9508 15.8133 52.4574 15.16C51.9774 14.5067 51.7241 13.72 51.6974 12.8H55.3374C55.3908 13.32 55.5708 13.72 55.8774 14C56.1841 14.2667 56.5841 14.4 57.0774 14.4C57.5841 14.4 57.9841 14.2867 58.2774 14.06C58.5708 13.82 58.7174 13.4933 58.7174 13.08C58.7174 12.7333 58.5974 12.4467 58.3574 12.22C58.1308 11.9933 57.8441 11.8067 57.4974 11.66C57.1641 11.5133 56.6841 11.3467 56.0574 11.16C55.1508 10.88 54.4108 10.6 53.8374 10.32C53.2641 10.04 52.7708 9.62667 52.3574 9.08C51.9441 8.53333 51.7374 7.82 51.7374 6.94C51.7374 5.63333 52.2108 4.61333 53.1574 3.88C54.1041 3.13333 55.3374 2.76 56.8574 2.76C58.4041 2.76 59.6508 3.13333 60.5974 3.88C61.5441 4.61333 62.0508 5.64 62.1174 6.96H58.4174C58.3908 6.50667 58.2241 6.15333 57.9174 5.9C57.6108 5.63333 57.2174 5.5 56.7374 5.5C56.3241 5.5 55.9908 5.61333 55.7374 5.84C55.4841 6.05333 55.3574 6.36667 55.3574 6.78C55.3574 7.23333 55.5708 7.58667 55.9974 7.84C56.4241 8.09333 57.0908 8.36667 57.9974 8.66C58.9041 8.96667 59.6374 9.26 60.1974 9.54C60.7708 9.82 61.2641 10.2267 61.6774 10.76C62.0908 11.2933 62.2974 11.98 62.2974 12.82C62.2974 13.62 62.0908 14.3467 61.6774 15C61.2774 15.6533 60.6908 16.1733 59.9174 16.56C59.1441 16.9467 58.2308 17.14 57.1774 17.14ZM69.4821 17.16C68.3888 17.16 67.4021 16.9267 66.5221 16.46C65.6554 15.9933 64.9688 15.3267 64.4621 14.46C63.9688 13.5933 63.7221 12.58 63.7221 11.42C63.7221 10.2733 63.9754 9.26667 64.4821 8.4C64.9888 7.52 65.6821 6.84667 66.5621 6.38C67.4421 5.91333 68.4288 5.68 69.5221 5.68C70.6154 5.68 71.6021 5.91333 72.4821 6.38C73.3621 6.84667 74.0554 7.52 74.5621 8.4C75.0688 9.26667 75.3221 10.2733 75.3221 11.42C75.3221 12.5667 75.0621 13.58 74.5421 14.46C74.0354 15.3267 73.3354 15.9933 72.4421 16.46C71.5621 16.9267 70.5754 17.16 69.4821 17.16ZM69.4821 14.2C70.1354 14.2 70.6888 13.96 71.1421 13.48C71.6088 13 71.8421 12.3133 71.8421 11.42C71.8421 10.5267 71.6154 9.84 71.1621 9.36C70.7221 8.88 70.1754 8.64 69.5221 8.64C68.8554 8.64 68.3021 8.88 67.8621 9.36C67.4221 9.82667 67.2021 10.5133 67.2021 11.42C67.2021 12.3133 67.4154 13 67.8421 13.48C68.2821 13.96 68.8288 14.2 69.4821 14.2ZM82.7365 8.68H80.8965V17H77.4765V8.68H76.2365V5.84H77.4765V5.52C77.4765 4.14667 77.8698 3.10667 78.6565 2.4C79.4432 1.68 80.5965 1.32 82.1165 1.32C82.3698 1.32 82.5565 1.32667 82.6765 1.34V4.24C82.0232 4.2 81.5632 4.29333 81.2965 4.52C81.0298 4.74667 80.8965 5.15333 80.8965 5.74V5.84H82.7365V8.68ZM90.5635 14.1V17H88.8235C87.5835 17 86.6168 16.7 85.9235 16.1C85.2302 15.4867 84.8835 14.4933 84.8835 13.12V8.68H83.5235V5.84H84.8835V3.12H88.3035V5.84H90.5435V8.68H88.3035V13.16C88.3035 13.4933 88.3835 13.7333 88.5435 13.88C88.7035 14.0267 88.9702 14.1 89.3435 14.1H90.5635ZM102.569 2.96V5.7H98.8485V17H95.4285V5.7H91.7085V2.96H102.569ZM114.805 11.24C114.805 11.56 114.785 11.8933 114.745 12.24H107.005C107.058 12.9333 107.278 13.4667 107.665 13.84C108.065 14.2 108.552 14.38 109.125 14.38C109.978 14.38 110.572 14.02 110.905 13.3H114.545C114.358 14.0333 114.018 14.6933 113.525 15.28C113.045 15.8667 112.438 16.3267 111.705 16.66C110.972 16.9933 110.152 17.16 109.245 17.16C108.152 17.16 107.178 16.9267 106.325 16.46C105.472 15.9933 104.805 15.3267 104.325 14.46C103.845 13.5933 103.605 12.58 103.605 11.42C103.605 10.26 103.838 9.24667 104.305 8.38C104.785 7.51333 105.452 6.84667 106.305 6.38C107.158 5.91333 108.138 5.68 109.245 5.68C110.325 5.68 111.285 5.90667 112.125 6.36C112.965 6.81333 113.618 7.46 114.085 8.3C114.565 9.14 114.805 10.12 114.805 11.24ZM111.305 10.34C111.305 9.75333 111.105 9.28667 110.705 8.94C110.305 8.59333 109.805 8.42 109.205 8.42C108.632 8.42 108.145 8.58667 107.745 8.92C107.358 9.25333 107.118 9.72667 107.025 10.34H111.305ZM121.149 17.16C120.176 17.16 119.309 16.9933 118.549 16.66C117.789 16.3267 117.189 15.8733 116.749 15.3C116.309 14.7133 116.062 14.06 116.009 13.34H119.389C119.429 13.7267 119.609 14.04 119.929 14.28C120.249 14.52 120.642 14.64 121.109 14.64C121.536 14.64 121.862 14.56 122.089 14.4C122.329 14.2267 122.449 14.0067 122.449 13.74C122.449 13.42 122.282 13.1867 121.949 13.04C121.616 12.88 121.076 12.7067 120.329 12.52C119.529 12.3333 118.862 12.14 118.329 11.94C117.796 11.7267 117.336 11.4 116.949 10.96C116.562 10.5067 116.369 9.9 116.369 9.14C116.369 8.5 116.542 7.92 116.889 7.4C117.249 6.86667 117.769 6.44667 118.449 6.14C119.142 5.83333 119.962 5.68 120.909 5.68C122.309 5.68 123.409 6.02667 124.209 6.72C125.022 7.41333 125.489 8.33333 125.609 9.48H122.449C122.396 9.09333 122.222 8.78667 121.929 8.56C121.649 8.33333 121.276 8.22 120.809 8.22C120.409 8.22 120.102 8.3 119.889 8.46C119.676 8.60667 119.569 8.81333 119.569 9.08C119.569 9.4 119.736 9.64 120.069 9.8C120.416 9.96 120.949 10.12 121.669 10.28C122.496 10.4933 123.169 10.7067 123.689 10.92C124.209 11.12 124.662 11.4533 125.049 11.92C125.449 12.3733 125.656 12.9867 125.669 13.76C125.669 14.4133 125.482 15 125.109 15.52C124.749 16.0267 124.222 16.4267 123.529 16.72C122.849 17.0133 122.056 17.16 121.149 17.16ZM133.981 14.1V17H132.241C131.001 17 130.035 16.7 129.341 16.1C128.648 15.4867 128.301 14.4933 128.301 13.12V8.68H126.941V5.84H128.301V3.12H131.721V5.84H133.961V8.68H131.721V13.16C131.721 13.4933 131.801 13.7333 131.961 13.88C132.121 14.0267 132.388 14.1 132.761 14.1H133.981Z" fill="white"/>
</svg>
